<svg id="Layer_1" data-name="Layer 1" xmlns="http://www.w3.org/2000/svg" viewBox="0 0 311.81 311.81"><defs><style>.cls-1{fill:#2e95c7;}.cls-2{fill:#575959;}</style></defs><title>Boldstep logo</title><path class="cls-1" d="M132.38,86.5s-9.87,14-10.62,36S133.27,154,149,153c14.37-.87,15.12-11.75,6.87-18.75s-24.75-22.75-20.75-46C135.13,88.25,135,85.38,132.38,86.5Z"/><path class="cls-1" d="M145.13,70.38S128.63,76,122.88,87s-8,22.25-14.87,23.38S97.38,104.5,96.88,97.75s-.12-12.37,3-17.5,9.5-14.25,36.38-14.62c0,0,13.62-.38,14.25,1.25S149.24,68.69,145.13,70.38Z"/><path class="cls-1" d="M142.26,34.75A22.82,22.82,0,0,0,128,44.25c-4.72,6.87-.5,10,9.87,10.5,9,.39,21.13,2,31,11.75s9.25,10.75,10.88,9.38-4.38-19.75-11.5-29.63S151.26,32.75,142.26,34.75Z"/><path class="cls-2" d="M198,50.5s-9.5-3-9.13,4.79,4.25,12.59,3.75,23.71-4,21.25-9.75,27.88c0,0-1.87,1.62-.87,3s7.5-2.5,16-9.5,18.25-16.13,17-28.25S206.76,53.75,198,50.5Z"/><path class="cls-2" d="M33.86,170.81h4.79C46,170.81,53,172.73,53,181.57c0,2.86-1.56,6.19-4.21,7.44v.1c4.63.84,7.85,5.36,7.85,9.94,0,7.85-6.71,11-13.62,11H33.86Zm4.89,17.37H40c4.63,0,8.42-.94,8.42-6.55s-3.74-6.45-8.32-6.45H38.75Zm0,17.47H42.5c4.52,0,9.25-1.35,9.25-6.92s-5.61-6.65-10-6.65h-3Z"/><path class="cls-2" d="M103,190.41a20.54,20.54,0,0,1-41.08,0,20.54,20.54,0,0,1,41.08,0Zm-4.88,0c0-8.63-6.45-15.86-15.66-15.86s-15.65,7.23-15.65,15.86a15.66,15.66,0,1,0,31.31,0Z"/><path class="cls-2" d="M115.24,205.55h11.91V210h-16.8V170.81h4.89Z"/><path class="cls-2" d="M132.56,170.81h8.11c12,0,22,6.34,22,19.4,0,13.36-9.78,19.81-22.16,19.81h-7.95Zm4.89,34.74h1.71c10,0,18.62-3.75,18.62-15.14s-8.63-15.13-18.62-15.13h-1.71Z"/><path class="cls-2" d="M187.57,178.25a6.7,6.7,0,0,0-6.29-3.7c-3.12,0-6.55,2.14-6.55,5.57,0,3.07,3,4.68,5.46,5.61l2.81,1.1c5.56,2.18,9.72,5.25,9.72,11.8,0,7.12-5.51,12.22-12.53,12.22a12.23,12.23,0,0,1-12.12-11l4.94-1a7.41,7.41,0,1,0,14.82-.21c0-4.21-3.38-6-6.76-7.44l-2.7-1.14c-4.47-1.92-8.53-4.47-8.53-9.93,0-6.35,5.62-10.14,11.55-10.14a11.17,11.17,0,0,1,10.08,5.93Z"/><path class="cls-2" d="M211.23,210h-4.88V175.28H197v-4.47h23.5v4.47h-9.31Z"/><path class="cls-2" d="M227,170.81h21.06v4.47H231.88v11h15.7v4.48h-15.7v14.82h16.17V210H227Z"/><path class="cls-2" d="M261.57,210h-4.89V170.81h5.62c12.06,0,15.8,4.16,15.8,11.34,0,8.26-6.29,11.44-13.72,11.44h-2.81Zm0-20.8h1.56c5,0,10.4-.94,10.4-7.18s-5.83-6.86-10.66-6.86h-1.3Z"/><path class="cls-1" d="M54.08,257.49H49.66V222.05h4.42Z"/><path class="cls-1" d="M61.46,220.36l26.6,27.87V222.05h4.42v36.89l-26.6-27.87v26.42H61.46Z"/><path class="cls-1" d="M104.23,257.49H99.81V222.05h4.42Z"/><path class="cls-1" d="M121.57,257.49h-4.42v-31.4h-8.41v-4H130v4h-8.41Z"/><path class="cls-1" d="M138.91,257.49H134.5V222.05h4.41Z"/><path class="cls-1" d="M151.75,248.6l-4.05,8.89H143l16.92-36.94,16.91,36.94h-4.74l-4-8.89Zm8.13-18.37-6.3,14.33h12.59Z"/><path class="cls-1" d="M186.71,257.49H182.3v-31.4h-8.42v-4h21.25v4h-8.42Z"/><path class="cls-1" d="M204.06,257.49h-4.42V222.05h4.42Z"/><path class="cls-1" d="M223.56,248.27l10.53-26.22h4.84l-15.37,37.32-15.41-37.32H213Z"/><path class="cls-1" d="M243.11,222.05h19v4H247.53V236h14.19v4H247.53v13.39h14.62v4.05h-19Z"/></svg>